<svg width="24" height="31" viewBox="0 0 24 31" fill="none" xmlns="http://www.w3.org/2000/svg">
<path d="M23.2277 15.9527L23.1593 11.9781C23.1618 11.9565 23.1633 11.9344 23.1633 11.9122V6.4354C23.1633 4.60078 21.6706 3.10814 19.836 3.10814H19.5944C19.3248 3.10814 19.0689 3.16677 18.8377 3.27113C18.6124 2.5061 17.9043 1.94608 17.0673 1.94608H14.4278C14.1116 1.38206 13.5083 1 12.817 1H11.0938C10.3261 1 9.66651 1.47149 9.38876 2.13985C9.14096 2.01616 8.86197 1.9461 8.56679 1.9461H7.74961C6.23244 1.9461 4.99823 3.1803 4.99823 4.69747V8.77954C4.69014 8.82777 4.39515 8.88951 4.11575 8.96498C3.14264 9.22754 2.29529 9.83309 1.72962 10.6701C1.16688 11.5027 0.916379 12.5138 1.02468 13.5173C1.40802 17.0732 3.35653 20.1143 6.97671 22.8067C6.86819 23.0718 6.8079 23.3616 6.8079 23.6653V27.7245C6.8079 28.9793 7.82865 30 9.08345 30H19.3175C20.5723 30 21.593 28.9793 21.593 27.7245V23.6653C21.593 23.3123 21.5122 22.9776 21.3681 22.6793L22.3192 20.5012C22.9493 19.0575 23.2553 17.5272 23.2281 15.9524L23.2277 15.9527ZM19.5944 4.27217H19.836C21.0289 4.27217 21.9991 5.24257 21.9991 6.43526V7.27304C20.9871 6.9188 19.9577 6.64313 18.913 6.44564V4.95385C18.913 4.57799 19.2186 4.27217 19.5945 4.27217H19.5944ZM17.7488 3.79154V6.25851C16.7328 6.12422 15.7034 6.06289 14.6627 6.07432V3.11007H17.0674C17.443 3.11007 17.7489 3.41566 17.7489 3.79154L17.7488 3.79154ZM10.4125 2.84546C10.4125 2.4696 10.7183 2.16399 11.094 2.16399H12.8172C13.1928 2.16399 13.4987 2.46979 13.4987 2.84546V6.11737C12.6552 6.17018 11.8052 6.26934 10.9491 6.41652C10.7712 6.44708 10.5922 6.48055 10.4128 6.51548L10.4126 4.72891L10.4125 2.84546ZM7.74951 3.1101H8.56669C8.94234 3.1101 9.24816 3.4159 9.24816 3.79157V6.76791C8.74861 6.88765 8.24572 7.02215 7.74285 7.17183C7.10151 7.36267 6.55043 7.7558 6.1623 8.28528V4.69735C6.1623 3.82216 6.87432 3.1101 7.74951 3.1101ZM17.7489 28.8357H10.4126V26.0741C10.4126 25.6569 10.7521 25.3172 11.1695 25.3172H16.9922C17.4097 25.3172 17.7492 25.6567 17.7492 26.0741L17.7489 28.8357ZM20.4283 27.7243C20.4283 28.3372 19.9298 28.8357 19.317 28.8357H18.913V26.0741C18.913 25.0149 18.0514 24.153 16.9919 24.153L11.1692 24.1532C10.1098 24.1532 9.24812 25.0149 9.24812 26.0743V28.8359H9.08284C8.46997 28.8359 7.97147 28.3374 7.97147 27.7245V23.6653C7.97147 23.0525 8.46998 22.554 9.08284 22.554H19.3169C19.9298 22.554 20.4283 23.0525 20.4283 23.6653L20.4283 27.7243ZM21.2518 20.0352L20.5117 21.7299C20.1641 21.5146 19.7548 21.3898 19.3168 21.3898H9.08275C8.55264 21.3898 8.06473 21.5726 7.67745 21.8777C4.32778 19.3875 2.52871 16.6097 2.18151 13.3925C2.01749 11.8722 2.9584 10.4829 4.41836 10.089C4.71689 10.0085 5.03826 9.94573 5.37881 9.90082L5.04536 10.6713C5.01376 10.7442 4.99734 10.823 4.99734 10.9024V13.9744C4.99734 14.2958 5.25803 14.5565 5.57945 14.5565C5.90084 14.5565 6.16156 14.2958 6.16156 13.9744V11.023L6.88917 9.34206C7.11057 8.83045 7.54254 8.44628 8.07415 8.28806C9.10963 7.97997 10.1428 7.73655 11.1453 7.56417C12.109 7.39848 13.0551 7.29454 13.9869 7.25172C14.0173 7.2565 14.048 7.25982 14.0798 7.25982C14.1276 7.25982 14.1738 7.25338 14.2181 7.24257C15.5591 7.19559 16.8705 7.27708 18.1617 7.48725C18.2081 7.50118 18.2569 7.50908 18.3072 7.51116C19.5315 7.72009 20.7379 8.045 21.9339 8.4872L22.0628 15.973C22.0877 17.3792 21.8145 18.746 21.2516 20.0351L21.2518 20.0352Z" fill="#54648f" stroke="#54648f" stroke-width="0.3625"/>
</svg>
