<svg width="30" height="30" viewBox="0 0 30 30" fill="none" xmlns="http://www.w3.org/2000/svg">
<path fill-rule="evenodd" clip-rule="evenodd" d="M15.4987 5.5733L18.0867 4.55854C18.566 4.37068 18.8023 3.82984 18.6144 3.3501C18.4266 2.87086 17.8857 2.63453 17.406 2.82289L14.5664 3.93639L11.6971 2.81077C11.2174 2.62342 10.6765 2.85925 10.4887 3.33848C10.3008 3.81772 10.5371 4.35907 11.0164 4.54692L13.6347 5.57351V8.29965L8.68085 11.8997L5.9789 11.6071L5.54935 8.91811C5.46754 8.40959 4.99083 8.06266 4.4818 8.14447C3.97328 8.22577 3.62686 8.70349 3.70766 9.21201L4.19144 12.2399L2.44367 14.8235C2.15532 15.2497 2.26743 15.8294 2.69414 16.1182C2.85372 16.2263 3.03552 16.2783 3.21529 16.2783C3.51475 16.2783 3.80815 16.1344 3.98843 15.8683L5.62822 13.4442L8.23733 13.7268L10.0747 19.3822L8.83819 21.5911L6.3336 21.0772C5.82912 20.9747 5.33625 21.2989 5.23272 21.8034C5.1292 22.3079 5.45391 22.8003 5.95839 22.9038L8.77371 23.4815L10.3654 25.708C10.5472 25.9625 10.8341 26.0978 11.1249 26.0978C11.3123 26.0978 11.5017 26.0413 11.6663 25.9241C12.0849 25.6242 12.1819 25.0424 11.8824 24.6228L10.4218 22.5802L11.634 20.4147H17.5003L18.712 22.5805L17.0858 24.8561C16.7864 25.2752 16.8828 25.8575 17.302 26.1569C17.4661 26.2741 17.6555 26.3306 17.8433 26.3306C18.1342 26.3306 18.4205 26.1948 18.6023 25.9403L20.3602 23.4815L23.3871 22.8604C23.8916 22.7568 24.2168 22.2645 24.1133 21.76C24.0092 21.256 23.5159 20.9313 23.0124 21.0338L20.2949 21.5912L19.0594 19.3828L20.8961 13.7269L23.5235 13.443L25.145 15.6925C25.3273 15.9455 25.6121 16.0804 25.9024 16.0804C26.0908 16.0804 26.2817 16.0228 26.4463 15.9041C26.8639 15.6027 26.9584 15.0204 26.6579 14.6028L24.9419 12.2228L25.3722 9.43774C25.451 8.92922 25.102 8.45301 24.593 8.37474C24.0865 8.29596 23.6083 8.64441 23.5295 9.15394L23.1508 11.6084L20.4527 11.8999L15.4987 8.29999V5.5733ZM11.7648 18.5503H17.3691L19.0997 13.2211L14.5664 9.92708L10.0337 13.2211L11.7648 18.5503Z" fill="#54648f"/>
<path fill-rule="evenodd" clip-rule="evenodd" d="M14.5664 1.86392C7.56221 1.86392 1.86392 7.56221 1.86392 14.5664C1.86392 21.5711 7.56221 27.2694 14.5664 27.2694C21.5706 27.2694 27.2694 21.5711 27.2694 14.5664C27.2694 7.56221 21.5706 1.86392 14.5664 1.86392ZM0 14.5664C0 6.53406 6.53406 0 14.5664 0C22.5993 0 29.1333 6.53406 29.1333 14.5664C29.1333 22.5993 22.5993 29.1333 14.5664 29.1333C6.53406 29.1333 0 22.5993 0 14.5664Z" fill="#54648f"/>
</svg>
