<svg width="50" height="50" viewBox="0 0 50 50" fill="none" xmlns="http://www.w3.org/2000/svg">
<g clip-path="url(#clip0_87_53664)">
<path d="M25 3C12.8684 3 3 12.8693 3 25C3 37.1292 12.8684 47 25 47C37.1316 47 47 37.1292 47 25C47 12.8693 37.1316 3 25 3Z" fill="#2A3248"/>
<path d="M24.9993 0C38.7843 0 50 11.2151 50 25.0007C50 38.7863 38.7843 50 24.9993 50C11.2143 50 0 38.7863 0 25.0007C0 11.2151 11.2143 0 24.9993 0ZM25 3C12.8684 3 3 12.8693 3 25C3 37.1292 12.8684 47 25 47C37.1316 47 47 37.1292 47 25C47 12.8693 37.1316 3 25 3ZM13.7296 11.7761C14.2335 12.5642 14.0129 13.6177 13.2357 14.1293C10.8041 15.7312 9.35225 18.4116 9.35225 21.2994C9.35225 22.2386 8.60226 23 7.67613 23C6.7509 23 6 22.2386 6 21.2994C6 17.2539 8.02297 13.5071 11.4106 11.2747C12.1888 10.7622 13.2257 10.988 13.7296 11.7761Z" fill="url(#paint0_linear_87_53664)"/>
<path d="M30.4239 18.13L30.2629 21.695H23.7309L23.5929 23.351L26.5369 23.742C27.4415 23.8493 28.1775 24.0793 28.7449 24.432C29.3122 24.7693 29.7492 25.191 30.0559 25.697C30.3779 26.203 30.6002 26.7473 30.7229 27.33C30.8455 27.8973 30.9069 28.4723 30.9069 29.055C30.9069 29.791 30.8072 30.481 30.6079 31.125C30.4085 31.7537 30.0789 32.3057 29.6189 32.781C29.1589 33.2563 28.5455 33.6243 27.7789 33.885C27.0122 34.1457 26.0539 34.276 24.9039 34.276C24.0605 34.276 23.1329 34.2377 22.1209 34.161C21.1089 34.0843 20.0739 33.9847 19.0159 33.862L19.4299 30.159C20.2119 30.1897 20.9555 30.2203 21.6609 30.251C22.3815 30.2817 23.0255 30.297 23.5929 30.297C24.2062 30.297 24.6739 30.251 24.9959 30.159C25.3332 30.067 25.5709 29.9213 25.7089 29.722C25.8469 29.5073 25.9312 29.2237 25.9619 28.871C25.9925 28.595 25.9695 28.365 25.8929 28.181C25.8162 27.997 25.6935 27.8437 25.5249 27.721C25.3562 27.5983 25.1339 27.5063 24.8579 27.445C24.5819 27.3837 24.2445 27.3377 23.8459 27.307L20.9479 26.939C20.5339 26.8777 20.1965 26.7013 19.9359 26.41C19.6905 26.1187 19.5755 25.7737 19.5909 25.375L20.0279 18.13H30.4239Z" fill="url(#paint1_linear_87_53664)"/>
</g>
<defs>
<linearGradient id="paint0_linear_87_53664" x1="0" y1="25" x2="50" y2="25" gradientUnits="userSpaceOnUse">
<stop stop-color="#06E8D2"/>
<stop offset="1" stop-color="#FFF200"/>
</linearGradient>
<linearGradient id="paint1_linear_87_53664" x1="32" y1="27" x2="13" y2="26.5" gradientUnits="userSpaceOnUse">
<stop stop-color="#F6F208"/>
<stop offset="1" stop-color="#0EE8CC"/>
</linearGradient>
<clipPath id="clip0_87_53664">
<rect width="50" height="50" fill="white"/>
</clipPath>
</defs>
</svg>
